HIERARCHY
ROOT Hips
{
  OFFSET -187.679 86.5976 -156.378
  CHANNELS 6 Xposition Yposition Zposition Zrotation Xrotation Yrotation
  JOINT LeftUpLeg
  {
    OFFSET 8.64259 1.95398 -2.38835
    CHANNELS 3 Zrotation Xrotation Yrotation
    JOINT LeftLeg
    {
      OFFSET 43.7702 0 0
      CHANNELS 3 Zrotation Xrotation Yrotation
      JOINT LeftFoot
      {
        OFFSET 40.6238 0 0
        CHANNELS 3 Zrotation Xrotation Yrotation
        JOINT LeftToeBase
        {
          OFFSET 12.7242 0 0
          CHANNELS 3 Zrotation Xrotation Yrotation
          End Site
          {
            OFFSET 0 0 0
          }
        }
      }
    }
  }
  JOINT RightUpLeg
  {
    OFFSET -8.2249 1.95398 -2.59336
    CHANNELS 3 Zrotation Xrotation Yrotation
    JOINT RightLeg
    {
      OFFSET 43.5653 0 0
      CHANNELS 3 Zrotation Xrotation Yrotation
      JOINT RightFoot
      {
        OFFSET 40.6238 0 0
        CHANNELS 3 Zrotation Xrotation Yrotation
        JOINT RightToeBase
        {
          OFFSET 12.7242 0 0
          CHANNELS 3 Zrotation Xrotation Yrotation
          End Site
          {
            OFFSET 0 0 0
          }
        }
      }
    }
  }
  JOINT Spine
  {
    OFFSET 0.165834 0.87714 6.61349
    CHANNELS 3 Zrotation Xrotation Yrotation
    JOINT Spine1
    {
      OFFSET 7.38963 1.71661e-005 0
      CHANNELS 3 Zrotation Xrotation Yrotation
      JOINT Spine2
      {
        OFFSET 11.9445 1.14441e-005 0
        CHANNELS 3 Zrotation Xrotation Yrotation
        JOINT Spine3
        {
          OFFSET 14.7254 4.19617e-005 0
          CHANNELS 3 Zrotation Xrotation Yrotation
          JOINT Spine4
          {
            OFFSET 10.9679 0 0
            CHANNELS 3 Zrotation Xrotation Yrotation
            JOINT RightShoulder
            {
              OFFSET 2.46616 -1.6653 3.69651
              CHANNELS 3 Zrotation Xrotation Yrotation
              JOINT RightArm
              {
                OFFSET 13.0012 0 0
                CHANNELS 3 Zrotation Xrotation Yrotation
                JOINT RightForeArm
                {
                  OFFSET 28.7848 1.52588e-005 0
                  CHANNELS 3 Zrotation Xrotation Yrotation
                  JOINT RightHand
                  {
                    OFFSET 26.5688 1.52588e-005 0
                    CHANNELS 3 Zrotation Xrotation Yrotation
                    End Site
                    {
                      OFFSET 0 0 0
                    }
                  }
                }
              }
            }
            JOINT LeftShoulder
            {
              OFFSET 2.38034 -1.29275 -3.7523
              CHANNELS 3 Zrotation Xrotation Yrotation
              JOINT LeftArm
              {
                OFFSET 16.3182 6.10352e-005 0
                CHANNELS 3 Zrotation Xrotation Yrotation
                JOINT LeftForeArm
                {
                  OFFSET 27.0901 0 0
                  CHANNELS 3 Zrotation Xrotation Yrotation
                  JOINT LeftHand
                  {
                    OFFSET 24.5451 1.52588e-005 0
                    CHANNELS 3 Zrotation Xrotation Yrotation
                    End Site
                    {
                      OFFSET 0 0 0
                    }
                  }
                }
              }
            }
            JOINT Neck
            {
              OFFSET 5.0226 -0.0266342 0
              CHANNELS 3 Zrotation Xrotation Yrotation
              JOINT Head
              {
                OFFSET 6.69363 2.86102e-005 0
                CHANNELS 3 Zrotation Xrotation Yrotation
                End Site
                {
                  OFFSET 0 0 0
                }
              }
            }
          }
        }
      }
    }
  }
}
MOTION
Frames:	11
Frame Time:	0.0416667
-279.438 87.2604 261.917 96.2626 44.5291 99.0612 -162.683 -30.9932 102.054 -13.6264 13.4446 7.90943 82.2749 10.9167 -0.709397 31.9811 0.163241 3.64531 174.214 32.8119 106.931 -44.3049 -3.61126 7.20884 64.3679 -1.12199 -0.161159 18.0491 -2.92364 3.12849 -1.57508 7.8221 -91.9414 11.1586 -4.03667 -3.47073 -0.510193 -4.18541 -3.28971 -23.036 -2.8081 -4.52234 -3.02337 -2.80811 -4.52234 89.4805 -50.807 -101.218 29.2534 -5.86507 11.3659 -15.9318 9.0522 -0.00845392 -1.73214 0.0386194 -11.6092 -91.4016 -48.6334 76.5381 -25.5993 16.163 -13.8622 11.141 0.552036 -7.34186 6.17665 0.708173 6.41736 -6.07941 8.02495 -1.63818 6.80847 8.76139 8.00348 
-273.229 85.3888 255.611 97.8719 41.4441 99.4867 -162.541 -28.1978 103.079 -28.4117 13.7252 7.18372 73.5001 6.97331 -0.181059 43.5382 5.44579 1.6405 173.657 32.0393 110.518 -56.98 -4.66536 5.71509 72.3433 -4.16272 -0.914364 22.2961 -2.6044 4.54135 -1.15082 7.74066 -92.2245 11.3159 -3.32621 -4.09814 -0.35683 -3.50321 -3.94798 -22.8544 -1.94248 -4.90668 -2.84177 -1.94249 -4.90669 87.5586 -50.7918 -104.12 27.5286 -9.07163 8.77648 -14.6601 8.72383 -0.00844634 -1.48606 0.0240774 -12.5639 -92.3624 -51.177 75.7392 -29.7243 23.9302 -9.06574 7.8681 -9.00362 -1.8237 3.29652 0.236082 2.70421 -6.8173 8.24229 3.94975 6.56138 8.31788 5.73291 
-268.103 84.743 249.912 100.309 41.2513 97.1442 -164.226 -17.5161 103.759 -55.2642 27.1191 8.96276 62.7338 1.87747 0.27321 24.1239 -2.11028 -0.139826 173.896 26.9584 109.502 -62.6807 -5.44493 4.8388 79.197 -6.68912 -2.26355 22.6819 -3.11465 6.21814 -0.952635 7.86578 -92.1786 11.0731 -2.9067 -4.0563 -0.600475 -3.08225 -3.92465 -23.0946 -1.55479 -4.74093 -3.08196 -1.55479 -4.74093 88.3301 -49.6636 -103.254 24.62 -9.52644 3.28147 -14.6177 4.52812 -0.00837477 -5.01094 0.152318 -9.5072 -92.4841 -52.1399 75.7994 -31.1266 22.881 -4.1222 7.7577 -9.935 0.424141 1.13106 0.25723 6.782 -4.61598 8.33643 8.4652 6.66403 7.67266 3.31761 
-263.958 85.6314 245.308 100.219 43.1314 95.9137 -169.345 0.361766 102.479 -84.8539 36.336 12.4142 61.764 1.27626 0.695548 14.2297 -5.92323 0.368431 174.387 21.9921 107.855 -62.3659 -4.64696 4.35894 82.8421 -8.14181 -2.43715 22.5064 -2.91795 5.54982 -0.5069 7.84612 -91.9076 11.1358 -1.89458 -3.61265 -0.538546 -2.05165 -3.52591 -23.0356 -0.722288 -4.01436 -3.02292 -0.72227 -4.01437 88.8236 -48.423 -102.822 23.8208 -7.56542 -1.96395 -15.357 3.85559 -0.00836757 -6.70399 0.192084 -8.99637 -90.6304 -49.6141 77.9288 -29.2389 15.9111 -1.44303 9.45052 -6.25636 -3.03162 2.66964 0.356096 5.89105 -1.03095 6.30731 7.77274 6.54566 5.43005 2.72541 
-260.206 88.5509 240.632 100.303 44.557 92.0397 -175.414 16.6159 96.9976 -99.1074 24.3014 10.2125 63.307 2.26339 2.21267 9.39089 -7.69168 -0.445053 174.639 14.7992 102.718 -56.447 -4.20814 3.79407 82.3372 -8.05244 -1.52324 24.1752 -2.95671 6.72592 0.121613 7.91019 -91.3231 11.0419 -0.371259 -2.59721 -0.631554 -0.485172 -2.57838 -23.1462 0.426174 -2.58878 -3.13352 0.426183 -2.58878 89.5606 -45.9901 -102.301 24.294 -6.32222 -6.39806 -15.815 3.74686 -0.00845882 -8.88787 0.227089 -8.41514 -90.0941 -48.6004 78.5063 -23.6318 12.4247 -3.63924 10.6033 -1.74401 -3.95005 3.27473 0.491895 7.50369 -1.2497 2.66768 5.75394 7.38555 2.06507 2.02494 
-255.99 94.0227 235.509 103.91 44.8138 84.3726 -177.649 26.0738 90.4331 -98.7286 12.1111 8.23002 66.3072 3.69017 3.40982 3.80772 -9.58307 -1.37599 174.386 4.62824 96.4338 -47.1359 -7.93052 2.0967 71.5056 -4.50364 -3.33326 28.4829 -3.02202 10.1156 0.754498 8.29006 -90.5233 10.2982 1.26385 -1.1499 -1.37265 1.21203 -1.20442 -23.911 1.55099 -0.716865 -3.89834 1.55101 -0.71688 87.8683 -47.3775 -104.599 21.6131 -6.83844 -7.27097 -15.6092 -0.307777 -1.48201 -11.8418 0.207132 -7.28923 -90.0344 -47.2246 78.286 -20.3059 10.3542 -5.21662 11.3575 -1.93293 -4.97514 3.00007 0.396116 6.03794 -6.13986 -0.733452 -0.876063 9.56133 -0.320764 3.23255 
-251.512 99.3191 230.472 105.853 43.9445 79.0596 -179.185 30.9364 85.4181 -90.3304 10.6149 7.66367 69.2951 5.12626 3.86443 6.43855 -9.24299 0.0104214 176.076 -0.576258 93.1958 -41.2641 -6.92335 -1.2303 58.9444 0.128005 -1.66545 24.3488 -3.69328 9.28946 1.13026 8.55412 -89.8466 9.76563 2.32262 0.122278 -1.90322 2.32574 0.0198752 -24.4536 2.17843 0.814997 -4.44092 2.17843 0.814996 88.3373 -46.121 -104.215 23.146 -9.60123 -9.61038 -14.9132 0.354966 -3.52232 -9.69294 0.349054 -9.66576 -89.3819 -44.3868 78.653 -20.5025 11.908 -4.08164 11.3914 0.444127 -6.92359 0.697137 0.209924 6.77827 -12.0427 -1.84812 -6.18194 11.5535 -1.33411 2.21524 
-246.902 102.752 224.887 104.677 39.6341 77.1492 -178.7 32.9455 82.4755 -79.3327 14.5759 6.64547 74.3721 7.84726 3.93595 4.70406 -7.71279 -3.89705 176.897 -2.88423 91.0177 -40.3182 -11.7976 -4.40655 54.975 1.2255 -0.303657 20.6479 -3.22837 5.31759 1.55936 8.59526 -89.3456 9.67035 3.40445 1.03106 -1.99647 3.44651 0.880058 -24.5565 2.93713 2.00722 -4.54384 2.93713 2.00721 88.3996 -45.0829 -104.417 24.715 -11.4699 -11.8671 -14.1285 -0.223383 -4.12236 -8.20406 0.301066 -9.81674 -89.5021 -45.1869 78.6461 -19.3414 14.6119 0.188162 11.0501 0.529781 -8.67611 1.76157 0.400774 8.73437 -16.3809 -1.66624 -6.39823 13.3164 -1.61385 0.457783 
-242.66 104.612 219.424 102.558 38.5345 77.8902 178.77 34.2944 80.9418 -66.7032 13.8789 7.59921 76.6112 8.49537 2.5501 8.68021 -6.39865 -3.3739 175.022 -4.97648 89.7899 -31.5317 -15.5608 -2.27631 53.209 1.18126 2.83805 26.3493 -1.07529 2.26224 1.58454 8.47907 -89.1546 9.89467 3.54186 1.39074 -1.77203 3.59964 1.23335 -24.3302 2.96014 2.39147 -4.31758 2.96014 2.39147 87.6268 -45.8735 -105.421 24.6661 -13.1317 -13.9907 -13.6609 -1.30348 -3.50871 -9.75194 0.321683 -9.26537 -89.4604 -46.4782 79.0046 -20.2088 14.678 1.88994 10.497 -0.178881 -4.66859 3.54608 0.570242 8.46943 -16.4256 -1.58839 -6.15544 11.9628 -1.49605 0.880655 
-238.116 104.425 214.036 100.867 38.3613 79.2128 176.832 33.9351 80.325 -53.2361 10.2573 8.61237 76.1937 8.22831 3.03182 11.999 -4.02237 -5.50432 174.664 -6.32366 90.8879 -23.9031 -6.49773 0.27481 56.7199 -0.0460977 2.07036 22.5952 -1.40301 1.23275 1.49905 8.34266 -89.1691 10.169 3.36604 1.36503 -1.49815 3.42285 1.21541 -24.0536 2.80019 2.314 -4.04093 2.80019 2.314 87.2 -45.9976 -106.062 26.1671 -13.0617 -14.5765 -13.5963 -1.69566 -3.2855 -10.8954 0.253469 -8.01676 -88.4366 -46.6383 80.6312 -24.1541 14.8215 4.37934 10.1946 -1.9639 -4.43489 3.29847 0.504866 7.7193 -16.187 -1.70399 -3.83708 11.1297 -1.77139 -0.490058 
-233.481 102.191 208.742 99.0426 37.0901 79.9619 177.065 33.7295 80.452 -40.8661 10.0872 7.57582 78.761 8.71291 -0.117053 9.58058 -8.02724 0.349447 174.415 -5.91241 90.7609 -21.7602 3.02739 1.6743 58.0163 -0.35968 1.12966 25.6524 -2.4796 6.59431 1.57232 8.23866 -89.1103 10.3744 3.53975 1.45853 -1.29239 3.60051 1.30116 -23.8496 2.93777 2.45544 -3.83696 2.93778 2.45544 86.9717 -45.8161 -106.48 28.326 -13.1088 -14.6804 -13.5946 -1.54634 -2.96309 -11.5805 0.345054 -8.74386 -87.4528 -46.6682 82.1666 -28.3733 12.7686 7.10437 10.1262 -5.75358 -7.03653 5.78404 0.867039 9.21915 -14.7128 -1.82631 -2.09352 10.155 -2.03921 -2.13211 
